<svg width="40" height="40" viewBox="0 0 40 40" fill="none" xmlns="http://www.w3.org/2000/svg">
<path fill-rule="evenodd" clip-rule="evenodd" d="M25 17.5C25 21.6422 21.6422 25 17.5 25C13.3579 25 10 21.6422 10 17.5C10 13.3579 13.3579 10 17.5 10C21.6422 10 25 13.3579 25 17.5ZM23.6322 25.3998C21.9387 26.7162 19.8108 27.5 17.5 27.5C11.9771 27.5 7.5 23.0228 7.5 17.5C7.5 11.9771 11.9771 7.5 17.5 7.5C23.0228 7.5 27.5 11.9771 27.5 17.5C27.5 19.8108 26.7162 21.9387 25.3998 23.632L33.384 31.6162L31.6162 33.3838L23.6322 25.3998Z" fill="#717171"/>
</svg>
