<svg width="40" height="40" viewBox="0 0 40 40" fill="none" xmlns="http://www.w3.org/2000/svg">
<path d="M24.9999 23.3333V29.3333C24.9999 30.7335 24.9999 31.4335 24.7274 31.9683C24.4878 32.4386 24.1052 32.8211 23.6349 33.0608C23.1001 33.3333 22.4001 33.3333 20.9999 33.3333H12.3333C10.9332 33.3333 10.2331 33.3333 9.6983 33.0608C9.2279 32.8211 8.84543 32.4386 8.60575 31.9683C8.33327 31.4335 8.33327 30.7335 8.33327 29.3333V16.6666M31.6666 16.6666V33.3333M8.33327 26.6666H24.9999M9.26288 8.14073L5.96475 14.737C5.64529 15.3759 5.48555 15.6954 5.52392 15.9551C5.55742 16.1819 5.68285 16.3848 5.87069 16.5162C6.0858 16.6666 6.44297 16.6666 7.15732 16.6666H32.8426C33.5569 16.6666 33.9141 16.6666 34.1292 16.5162C34.3171 16.3848 34.4424 16.1819 34.4759 15.9551C34.5142 15.6954 34.3546 15.3759 34.0351 14.737L30.7369 8.14073C30.4694 7.60563 30.3356 7.33808 30.1361 7.14259C29.9596 6.96974 29.7469 6.83828 29.5134 6.75771C29.2492 6.66663 28.9501 6.66663 28.3519 6.66663H11.648C11.0498 6.66663 10.7506 6.66663 10.4866 6.75771C10.253 6.83828 10.0403 6.96974 9.8638 7.14259C9.66422 7.33808 9.53045 7.60563 9.26288 8.14073Z" stroke="#959595" stroke-width="3" stroke-linecap="round" stroke-linejoin="round"/>
</svg>
