<svg width="27" height="32" viewBox="0 0 27 32" fill="none" xmlns="http://www.w3.org/2000/svg">
<path d="M18.4967 8.58105H21.2625C21.5589 8.58105 21.8431 8.70551 22.0527 8.92702C22.2623 9.14853 22.38 9.44896 22.38 9.76223V29.2514C22.38 29.5647 22.2623 29.8651 22.0527 30.0866C21.8431 30.3081 21.5589 30.4326 21.2625 30.4326H5.6175C5.32112 30.4326 5.03688 30.3081 4.82731 30.0866C4.61774 29.8651 4.5 29.5647 4.5 29.2514V9.76223C4.5 9.44896 4.61774 9.14853 4.82731 8.92702C5.03688 8.70551 5.32112 8.58105 5.6175 8.58105H9.52875V10.3528H17.3512V8.58105H18.4967Z" stroke="#A9DFD8" stroke-width="1.5" stroke-linejoin="round"/>
<path d="M15.1166 15.6674L10.6466 20.3926H16.2363L11.7641 25.1173M9.52905 6.80859H17.3516V10.3521H9.52905V6.80859Z" stroke="#A9DFD8" stroke-width="1.5" stroke-linecap="round" stroke-linejoin="round"/>
</svg>
