<svg width="40" height="40" viewBox="0 0 40 40" fill="none" xmlns="http://www.w3.org/2000/svg">
<path d="M18.7998 16.5984C18.7998 17.2611 19.337 17.7984 19.9998 17.7984C20.6625 17.7984 21.1998 17.2611 21.1998 16.5984H18.7998ZM21.1998 7.2C21.1998 6.53726 20.6625 6 19.9998 6C19.337 6 18.7998 6.53726 18.7998 7.2H21.1998ZM15.6971 11.4585C16.3002 11.1839 16.5665 10.4722 16.2919 9.86909C16.0172 9.26594 15.3056 8.99965 14.7025 9.2743L15.6971 11.4585ZM8.79977 20.256L7.59961 20.2498L7.59985 20.2699L8.79977 20.256ZM19.9998 31.2L20.0135 30C20.0044 30 19.9951 30 19.986 30L19.9998 31.2ZM31.1998 20.256L32.3999 20.2699L32.3998 20.2498L31.1998 20.256ZM25.297 9.2743C24.6938 8.99965 23.9823 9.26594 23.7076 9.86909C23.4331 10.4722 23.6993 11.1839 24.3025 11.4585L25.297 9.2743ZM21.1998 16.5984V7.2H18.7998V16.5984H21.1998ZM14.7025 9.2743C10.3973 11.2347 7.62439 15.5192 7.59961 20.2498L9.99975 20.2622C10.0196 16.4678 12.2437 13.031 15.6971 11.4585L14.7025 9.2743ZM7.59985 20.2699C7.67873 27.0474 13.2362 32.4778 20.0135 32.4L19.986 30C14.5339 30.0627 10.0631 25.6941 9.99969 20.2421L7.59985 20.2699ZM19.986 32.4C26.7633 32.4778 32.3212 27.0474 32.3999 20.2699L29.9999 20.2421C29.9364 25.6941 25.4657 30.0627 20.0135 30L19.986 32.4ZM32.3998 20.2498C32.375 15.5192 29.6023 11.2347 25.297 9.2743L24.3025 11.4585C27.7558 13.031 29.9799 16.4678 29.9998 20.2622L32.3998 20.2498Z" fill="#717171"/>
</svg>
