<svg width="40" height="41" viewBox="0 0 40 41" fill="none" xmlns="http://www.w3.org/2000/svg">
<path d="M24.9999 23.6761V29.6761C24.9999 31.0762 24.9999 31.7762 24.7274 32.3111C24.4878 32.7814 24.1052 33.1639 23.6349 33.4036C23.1001 33.6761 22.4001 33.6761 20.9999 33.6761H12.3333C10.9332 33.6761 10.2331 33.6761 9.6983 33.4036C9.2279 33.1639 8.84543 32.7814 8.60575 32.3111C8.33327 31.7762 8.33327 31.0762 8.33327 29.6761V17.0094M31.6666 17.0094V33.6761M8.33327 27.0094H24.9999M9.26288 8.4835L5.96475 15.0798C5.64529 15.7187 5.48555 16.0382 5.52392 16.2979C5.55742 16.5246 5.68285 16.7276 5.87069 16.8589C6.0858 17.0094 6.44297 17.0094 7.15732 17.0094H32.8426C33.5569 17.0094 33.9141 17.0094 34.1292 16.8589C34.3171 16.7276 34.4424 16.5246 34.4759 16.2979C34.5142 16.0382 34.3546 15.7187 34.0351 15.0798L30.7369 8.4835C30.4694 7.9484 30.3356 7.68085 30.1361 7.48537C29.9596 7.31252 29.7469 7.18105 29.5134 7.10048C29.2492 7.0094 28.9501 7.0094 28.3519 7.0094H11.648C11.0498 7.0094 10.7506 7.0094 10.4866 7.10048C10.253 7.18105 10.0403 7.31252 9.8638 7.48537C9.66422 7.68085 9.53045 7.9484 9.26288 8.4835Z" stroke="#959595" stroke-width="3" stroke-linecap="round" stroke-linejoin="round"/>
</svg>
