<svg width="24" height="25" viewBox="0 0 24 25" fill="none" xmlns="http://www.w3.org/2000/svg">
<path d="M5.06982 8.49994C5.94996 6.97392 7.3092 5.78107 8.93658 5.10653C10.564 4.43198 12.3685 4.31346 14.0701 4.76936C15.7718 5.22526 17.2754 6.23008 18.3475 7.62788C19.4197 9.02568 20.0005 10.7383 19.9998 12.4999" stroke="white" stroke-width="2.5" stroke-linecap="round" stroke-linejoin="round"/>
<path d="M18.93 16.5C18.0499 18.026 16.6906 19.2189 15.0632 19.8934C13.4359 20.568 11.6313 20.6865 9.92968 20.2306C8.22804 19.7747 6.72447 18.7699 5.6523 17.3721C4.58013 15.9743 3.99931 14.2616 4 12.5" stroke="white" stroke-width="2.5" stroke-linecap="round" stroke-linejoin="round"/>
<path d="M5 3.5V8.5H10" stroke="white" stroke-width="2.5" stroke-linecap="round" stroke-linejoin="round"/>
<path d="M19 21.5V16.5H14" stroke="white" stroke-width="2.5" stroke-linecap="round" stroke-linejoin="round"/>
</svg>
