<svg width="27" height="31" viewBox="0 0 27 31" fill="none" xmlns="http://www.w3.org/2000/svg">
<path d="M13.3462 18.2756C16.3802 18.2756 18.8397 15.7373 18.8397 12.6061C18.8397 9.47487 16.3802 6.93652 13.3462 6.93652C10.3123 6.93652 7.85278 9.47487 7.85278 12.6061C7.85278 15.7373 10.3123 18.2756 13.3462 18.2756Z" stroke="#20AEF3" stroke-width="1.5"/>
<path d="M17.7412 22.8115H24.3333M21.0373 19.4097V26.2132M18.8399 29.6149H5.94786C5.63625 29.615 5.32819 29.5467 5.04413 29.4145C4.76006 29.2823 4.50649 29.0893 4.30024 28.8482C4.09398 28.6071 3.93977 28.3235 3.84783 28.0163C3.75589 27.709 3.72832 27.385 3.76696 27.0659L4.19545 23.5236C4.2951 22.7006 4.68262 21.9436 5.28516 21.3948C5.8877 20.846 6.66374 20.5433 7.46735 20.5437H7.85299L18.8399 29.6149Z" stroke="#20AEF3" stroke-width="1.5" stroke-linecap="round" stroke-linejoin="round"/>
</svg>
