<svg width="34" height="36" viewBox="0 0 34 36" fill="none" xmlns="http://www.w3.org/2000/svg">
<path fill-rule="evenodd" clip-rule="evenodd" d="M7 0.5C3.56303 0.5 0.75 3.31302 0.75 6.75V34.25C0.750099 34.5182 0.836468 34.7793 0.996348 34.9947C1.15623 35.2101 1.38114 35.3683 1.63786 35.446C1.89458 35.5238 2.16949 35.5169 2.42199 35.4263C2.67448 35.3358 2.89117 35.1665 3.04004 34.9434L4.5 32.7534L5.95996 34.9434C6.07413 35.1145 6.22879 35.2549 6.41022 35.352C6.59165 35.4491 6.79423 35.4998 7 35.4998C7.20577 35.4998 7.40835 35.4491 7.58978 35.352C7.77121 35.2549 7.92587 35.1145 8.04004 34.9434L9.5 32.7534L10.96 34.9434C11.0741 35.1145 11.2288 35.2549 11.4102 35.352C11.5917 35.4491 11.7942 35.4998 12 35.4998C12.2058 35.4998 12.4083 35.4491 12.5898 35.352C12.7712 35.2549 12.9259 35.1145 13.04 34.9434L14.5 32.7534L15.96 34.9434C16.0741 35.1145 16.2288 35.2549 16.4102 35.352C16.5917 35.4491 16.7942 35.4998 17 35.4998C17.2058 35.4998 17.4083 35.4491 17.5898 35.352C17.7712 35.2549 17.9259 35.1145 18.04 34.9434L19.5 32.7534L20.96 34.9434C21.1088 35.1665 21.3255 35.3358 21.578 35.4263C21.8305 35.5169 22.1054 35.5238 22.3621 35.446C22.6189 35.3683 22.8438 35.2101 23.0037 34.9947C23.1635 34.7793 23.2499 34.5182 23.25 34.25V19.25H32C32.3315 19.25 32.6494 19.1183 32.8838 18.8838C33.1183 18.6494 33.25 18.3315 33.25 18V6.75C33.25 3.31302 30.437 0.5 27 0.5H7ZM7 3H22.0098C21.2199 4.04664 20.75 5.34574 20.75 6.75V8V18V30.1216L20.54 29.8066C20.4259 29.6355 20.2712 29.4951 20.0898 29.398C19.9083 29.3009 19.7058 29.2502 19.5 29.2502C19.2942 29.2502 19.0917 29.3009 18.9102 29.398C18.7288 29.4951 18.5741 29.6355 18.46 29.8066L17 31.9966L15.54 29.8066C15.4259 29.6355 15.2712 29.4951 15.0898 29.398C14.9083 29.3009 14.7058 29.2502 14.5 29.2502C14.2942 29.2502 14.0917 29.3009 13.9102 29.398C13.7288 29.4951 13.5741 29.6355 13.46 29.8066L12 31.9966L10.54 29.8066C10.4259 29.6355 10.2712 29.4951 10.0898 29.398C9.90835 29.3009 9.70577 29.2502 9.5 29.2502C9.29423 29.2502 9.09165 29.3009 8.91022 29.398C8.72879 29.4951 8.57413 29.6355 8.45996 29.8066L7 31.9966L5.54004 29.8066C5.42587 29.6355 5.27121 29.4951 5.08978 29.398C4.90835 29.3009 4.70577 29.2502 4.5 29.2502C4.29423 29.2502 4.09165 29.3009 3.91022 29.398C3.72879 29.4951 3.57413 29.6355 3.45996 29.8066L3.25 30.1216V6.75C3.25 4.66412 4.91413 3 7 3ZM27 3C29.0859 3 30.75 4.66412 30.75 6.75V16.75H23.25V8V6.75C23.25 4.66412 24.9141 3 27 3Z" fill="#5356EC"/>
<path fill-rule="evenodd" clip-rule="evenodd" d="M7 15.5C6.66848 15.5 6.35054 15.6317 6.11612 15.8661C5.8817 16.1005 5.75 16.4185 5.75 16.75C5.75 17.0815 5.8817 17.3995 6.11612 17.6339C6.35054 17.8683 6.66848 18 7 18H12C12.3315 18 12.6495 17.8683 12.8839 17.6339C13.1183 17.3995 13.25 17.0815 13.25 16.75C13.25 16.4185 13.1183 16.1005 12.8839 15.8661C12.6495 15.6317 12.3315 15.5 12 15.5H7Z" fill="#5356EC"/>
<path fill-rule="evenodd" clip-rule="evenodd" d="M7 19.25C6.66848 19.25 6.35054 19.3817 6.11612 19.6161C5.8817 19.8505 5.75 20.1685 5.75 20.5C5.75 20.8315 5.8817 21.1495 6.11612 21.3839C6.35054 21.6183 6.66848 21.75 7 21.75H17C17.3315 21.75 17.6495 21.6183 17.8839 21.3839C18.1183 21.1495 18.25 20.8315 18.25 20.5C18.25 20.1685 18.1183 19.8505 17.8839 19.6161C17.6495 19.3817 17.3315 19.25 17 19.25H7Z" fill="#5356EC"/>
<path fill-rule="evenodd" clip-rule="evenodd" d="M7 23C6.66848 23 6.35054 23.1317 6.11612 23.3661C5.8817 23.6005 5.75 23.9185 5.75 24.25C5.75 24.5815 5.8817 24.8995 6.11612 25.1339C6.35054 25.3683 6.66848 25.5 7 25.5H17C17.3315 25.5 17.6495 25.3683 17.8839 25.1339C18.1183 24.8995 18.25 24.5815 18.25 24.25C18.25 23.9185 18.1183 23.6005 17.8839 23.3661C17.6495 23.1317 17.3315 23 17 23H7Z" fill="#5356EC"/>
<path fill-rule="evenodd" clip-rule="evenodd" d="M7 6.75C6.66849 6.75003 6.35057 6.88174 6.11615 7.11615C5.88174 7.35057 5.75003 7.66849 5.75 8V13C5.75003 13.3315 5.88174 13.6494 6.11615 13.8838C6.35057 14.1183 6.66849 14.25 7 14.25H12C12.3315 14.25 12.6494 14.1183 12.8838 13.8838C13.1183 13.6494 13.25 13.3315 13.25 13V8C13.25 7.66849 13.1183 7.35057 12.8838 7.11615C12.6494 6.88174 12.3315 6.75003 12 6.75H7ZM8.25 9.25H10.75V11.75H8.25V9.25Z" fill="#5356EC"/>
</svg>
