<svg width="44" height="44" viewBox="0 0 44 44" fill="none" xmlns="http://www.w3.org/2000/svg">
<path d="M5.5 5.5L38.5 38.5M22 33H22.0183M11 11V32.6333C11 34.6869 11 35.7137 11.3996 36.498C11.7512 37.1879 12.3121 37.7489 13.002 38.1003C13.7864 38.5 14.8131 38.5 16.8667 38.5H27.5C29.2085 38.5 30.0626 38.5 30.7366 38.221C31.6349 37.8488 32.3488 37.1349 32.721 36.2366C33 35.5626 33 34.7085 33 33M15.8582 5.5H27.1333C29.1869 5.5 30.2137 5.5 30.998 5.89965C31.6879 6.25117 32.2489 6.8121 32.6003 7.50204C33 8.28637 33 9.31315 33 11.3667V22.6418" stroke="#959595" stroke-width="3" stroke-linecap="round" stroke-linejoin="round"/>
</svg>
