<svg width="44" height="44" viewBox="0 0 44 44" fill="none" xmlns="http://www.w3.org/2000/svg">
<path d="M18.3333 22.3056L20.5898 24.75L25.6667 19.25M16.8667 38.5H27.1333C29.1869 38.5 30.2137 38.5 30.998 38.1003C31.6879 37.7489 32.2489 37.1879 32.6003 36.498C33 35.7137 33 34.6868 33 32.6333V11.3667C33 9.31315 33 8.28637 32.6003 7.50204C32.2489 6.8121 31.6879 6.25117 30.998 5.89965C30.2137 5.5 29.1869 5.5 27.1333 5.5H16.8667C14.8131 5.5 13.7864 5.5 13.002 5.89965C12.3121 6.25117 11.7512 6.8121 11.3996 7.50204C11 8.28637 11 9.31313 11 11.3667V32.6333C11 34.6868 11 35.7137 11.3996 36.498C11.7512 37.1879 12.3121 37.7489 13.002 38.1003C13.7864 38.5 14.8131 38.5 16.8667 38.5Z" stroke="#959595" stroke-width="3" stroke-linecap="round" stroke-linejoin="round"/>
</svg>
