<svg width="38" height="38" viewBox="0 0 38 38" fill="none" xmlns="http://www.w3.org/2000/svg">
<path d="M19 19C21.6234 19 23.75 16.8734 23.75 14.25C23.75 11.6266 21.6234 9.5 19 9.5C16.3766 9.5 14.25 11.6266 14.25 14.25C14.25 16.8734 16.3766 19 19 19Z" stroke="#959595" stroke-width="3.5"/>
<path d="M19.0001 34.8333C27.7446 34.8333 34.8334 27.7445 34.8334 19C34.8334 10.2555 27.7446 3.16663 19.0001 3.16663C10.2556 3.16663 3.16675 10.2555 3.16675 19C3.16675 27.7445 10.2556 34.8333 19.0001 34.8333Z" stroke="#959595" stroke-width="3.5"/>
<path d="M28.451 31.6667C28.199 27.0885 26.7973 23.75 18.9997 23.75C11.2023 23.75 9.80057 27.0885 9.54858 31.6667" stroke="#959595" stroke-width="3.5" stroke-linecap="round"/>
</svg>
