<svg width="27" height="32" viewBox="0 0 27 32" fill="none" xmlns="http://www.w3.org/2000/svg">
<path d="M19.2985 12.2518H22.9039C23.1219 12.2521 23.3321 12.337 23.4938 12.4902C23.6554 12.6434 23.757 12.8539 23.7788 13.081L24.3157 18.7009H22.5447L22.1046 14.0944H19.2985V16.8583C19.2985 17.1027 19.2058 17.337 19.0407 17.5098C18.8757 17.6826 18.6518 17.7796 18.4183 17.7796C18.1849 17.7796 17.961 17.6826 17.7959 17.5098C17.6309 17.337 17.5381 17.1027 17.5381 16.8583V14.0944H10.4965V16.8583C10.4965 17.1027 10.4037 17.337 10.2387 17.5098C10.0736 17.6826 9.84969 17.7796 9.61625 17.7796C9.3828 17.7796 9.15892 17.6826 8.99385 17.5098C8.82878 17.337 8.73604 17.1027 8.73604 16.8583V14.0944H5.92818L4.51984 28.8353H14.0173V30.6779H3.54633C3.42339 30.6777 3.30184 30.6507 3.18951 30.5984C3.07718 30.5461 2.97656 30.4697 2.89413 30.3743C2.8117 30.2788 2.7493 30.1663 2.71094 30.044C2.67258 29.9218 2.65911 29.7925 2.6714 29.6644L4.25578 13.081C4.27759 12.8539 4.37915 12.6434 4.54079 12.4902C4.70244 12.337 4.91265 12.2521 5.13071 12.2518H8.73604V11.6088C8.73604 8.4137 11.088 5.80273 14.0173 5.80273C16.9466 5.80273 19.2985 8.4137 19.2985 11.6088V12.2537V12.2518ZM17.5381 12.2518V11.6088C17.5381 9.40871 15.9502 7.64534 14.0173 7.64534C12.0844 7.64534 10.4965 9.40871 10.4965 11.6088V12.2537H17.5381V12.2518ZM23.0782 25.9608C23.1585 25.8694 23.2556 25.7959 23.3637 25.7447C23.4718 25.6936 23.5887 25.6658 23.7074 25.6632C23.826 25.6605 23.9439 25.683 24.054 25.7292C24.1642 25.7755 24.2642 25.8446 24.3482 25.9323C24.4321 26.0201 24.4983 26.1247 24.5426 26.2399C24.587 26.3551 24.6086 26.4785 24.6063 26.6027C24.6039 26.7269 24.5775 26.8492 24.5288 26.9625C24.4801 27.0757 24.41 27.1775 24.3228 27.2617L20.8019 30.9469C20.6369 31.1196 20.413 31.2166 20.1796 31.2166C19.9462 31.2166 19.7224 31.1196 19.5573 30.9469L16.0365 27.2617C15.9524 27.1767 15.8854 27.075 15.8392 26.9626C15.7931 26.8502 15.7688 26.7293 15.7678 26.607C15.7668 26.4847 15.7891 26.3634 15.8333 26.2501C15.8776 26.1369 15.9429 26.034 16.0256 25.9475C16.1082 25.861 16.2065 25.7926 16.3147 25.7463C16.4228 25.7 16.5388 25.6767 16.6556 25.6777C16.7725 25.6788 16.888 25.7042 16.9954 25.7525C17.1028 25.8008 17.1999 25.871 17.2811 25.959L19.2985 28.0724V21.4649C19.2985 21.2205 19.3913 20.9862 19.5563 20.8134C19.7214 20.6406 19.9453 20.5435 20.1787 20.5435C20.4122 20.5435 20.6361 20.6406 20.8011 20.8134C20.9662 20.9862 21.059 21.2205 21.059 21.4649V28.0724L23.0782 25.959V25.9608Z" fill="#F2C8ED"/>
</svg>
