<svg width="36" height="36" viewBox="0 0 36 36" fill="none" xmlns="http://www.w3.org/2000/svg">
<path d="M5.79588 24.6828C4.50896 19.5351 3.8655 16.9613 5.21675 15.2307C6.56799 13.5 9.22106 13.5 14.5272 13.5H21.4732C26.7793 13.5 29.4323 13.5 30.7835 15.2307C32.1349 16.9613 31.4914 19.5351 30.2045 24.6828C29.386 27.9569 28.9766 29.5938 27.7561 30.5469C26.5354 31.5 24.848 31.5 21.4732 31.5H14.5272C11.1524 31.5 9.46499 31.5 8.24432 30.5469C7.02365 29.5938 6.61439 27.9569 5.79588 24.6828Z" stroke="white" stroke-width="3"/>
<path d="M29.25 14.25L28.1844 10.342C27.7735 8.83507 27.568 8.08162 27.1467 7.51419C26.727 6.94909 26.1567 6.51351 25.5012 6.25728C24.8428 6 24.0619 6 22.5 6M6.75 14.25L7.8156 10.342C8.22648 8.83507 8.43192 8.08162 8.85332 7.51419C9.27299 6.94909 9.84324 6.51351 10.4988 6.25728C11.1571 6 11.9381 6 13.5 6" stroke="white" stroke-width="3"/>
<path d="M13.5 6C13.5 5.17158 14.1716 4.5 15 4.5H21C21.8284 4.5 22.5 5.17158 22.5 6C22.5 6.82842 21.8284 7.5 21 7.5H15C14.1716 7.5 13.5 6.82842 13.5 6Z" stroke="white" stroke-width="3"/>
</svg>
