<svg width="40" height="40" viewBox="0 0 40 40" fill="none" xmlns="http://www.w3.org/2000/svg">
<path fill-rule="evenodd" clip-rule="evenodd" d="M10 2.5C6.56303 2.5 3.75 5.31303 3.75 8.75V36.25C3.7501 36.5182 3.83647 36.7793 3.99635 36.9947C4.15623 37.2101 4.38114 37.3683 4.63786 37.446C4.89458 37.5238 5.16949 37.5169 5.42199 37.4263C5.67448 37.3358 5.89117 37.1665 6.04004 36.9434L7.5 34.7534L8.95996 36.9434C9.07413 37.1145 9.22879 37.2549 9.41022 37.352C9.59165 37.4491 9.79423 37.4998 10 37.4998C10.2058 37.4998 10.4084 37.4491 10.5898 37.352C10.7712 37.2549 10.9259 37.1145 11.04 36.9434L12.5 34.7534L13.96 36.9434C14.0741 37.1145 14.2288 37.2549 14.4102 37.352C14.5916 37.4491 14.7942 37.4998 15 37.4998C15.2058 37.4998 15.4084 37.4491 15.5898 37.352C15.7712 37.2549 15.9259 37.1145 16.04 36.9434L17.5 34.7534L18.96 36.9434C19.0741 37.1145 19.2288 37.2549 19.4102 37.352C19.5916 37.4491 19.7942 37.4998 20 37.4998C20.2058 37.4998 20.4084 37.4491 20.5898 37.352C20.7712 37.2549 20.9259 37.1145 21.04 36.9434L22.5 34.7534L23.96 36.9434C24.1088 37.1665 24.3255 37.3358 24.578 37.4263C24.8305 37.5169 25.1054 37.5238 25.3621 37.446C25.6189 37.3683 25.8438 37.2101 26.0037 36.9947C26.1635 36.7793 26.2499 36.5182 26.25 36.25V21.25H35C35.3315 21.25 35.6494 21.1183 35.8838 20.8838C36.1183 20.6494 36.25 20.3315 36.25 20V8.75C36.25 5.31303 33.437 2.5 30 2.5H10ZM10 5H25.0098C24.2199 6.04664 23.75 7.34574 23.75 8.75V10V20V32.1216L23.54 31.8066C23.4259 31.6355 23.2712 31.4951 23.0898 31.398C22.9084 31.3009 22.7058 31.2502 22.5 31.2502C22.2942 31.2502 22.0916 31.3009 21.9102 31.398C21.7288 31.4951 21.5741 31.6355 21.46 31.8066L20 33.9966L18.54 31.8066C18.4259 31.6355 18.2712 31.4951 18.0898 31.398C17.9084 31.3009 17.7058 31.2502 17.5 31.2502C17.2942 31.2502 17.0916 31.3009 16.9102 31.398C16.7288 31.4951 16.5741 31.6355 16.46 31.8066L15 33.9966L13.54 31.8066C13.4259 31.6355 13.2712 31.4951 13.0898 31.398C12.9084 31.3009 12.7058 31.2502 12.5 31.2502C12.2942 31.2502 12.0916 31.3009 11.9102 31.398C11.7288 31.4951 11.5741 31.6355 11.46 31.8066L10 33.9966L8.54004 31.8066C8.42587 31.6355 8.27121 31.4951 8.08978 31.398C7.90835 31.3009 7.70577 31.2502 7.5 31.2502C7.29423 31.2502 7.09165 31.3009 6.91022 31.398C6.72879 31.4951 6.57413 31.6355 6.45996 31.8066L6.25 32.1216V8.75C6.25 6.66413 7.91413 5 10 5ZM30 5C32.0859 5 33.75 6.66413 33.75 8.75V18.75H26.25V10V8.75C26.25 6.66413 27.9141 5 30 5Z" fill="#959595"/>
<path fill-rule="evenodd" clip-rule="evenodd" d="M10 17.5C9.66848 17.5 9.35054 17.6317 9.11612 17.8661C8.8817 18.1005 8.75 18.4185 8.75 18.75C8.75 19.0815 8.8817 19.3995 9.11612 19.6339C9.35054 19.8683 9.66848 20 10 20H15C15.3315 20 15.6495 19.8683 15.8839 19.6339C16.1183 19.3995 16.25 19.0815 16.25 18.75C16.25 18.4185 16.1183 18.1005 15.8839 17.8661C15.6495 17.6317 15.3315 17.5 15 17.5H10Z" fill="#959595"/>
<path fill-rule="evenodd" clip-rule="evenodd" d="M10 21.25C9.66848 21.25 9.35054 21.3817 9.11612 21.6161C8.8817 21.8505 8.75 22.1685 8.75 22.5C8.75 22.8315 8.8817 23.1495 9.11612 23.3839C9.35054 23.6183 9.66848 23.75 10 23.75H20C20.3315 23.75 20.6495 23.6183 20.8839 23.3839C21.1183 23.1495 21.25 22.8315 21.25 22.5C21.25 22.1685 21.1183 21.8505 20.8839 21.6161C20.6495 21.3817 20.3315 21.25 20 21.25H10Z" fill="#959595"/>
<path fill-rule="evenodd" clip-rule="evenodd" d="M10 25C9.66848 25 9.35054 25.1317 9.11612 25.3661C8.8817 25.6005 8.75 25.9185 8.75 26.25C8.75 26.5815 8.8817 26.8995 9.11612 27.1339C9.35054 27.3683 9.66848 27.5 10 27.5H20C20.3315 27.5 20.6495 27.3683 20.8839 27.1339C21.1183 26.8995 21.25 26.5815 21.25 26.25C21.25 25.9185 21.1183 25.6005 20.8839 25.3661C20.6495 25.1317 20.3315 25 20 25H10Z" fill="#959595"/>
<path fill-rule="evenodd" clip-rule="evenodd" d="M10 8.75C9.66849 8.75003 9.35057 8.88174 9.11615 9.11615C8.88174 9.35057 8.75003 9.66849 8.75 10V15C8.75003 15.3315 8.88174 15.6494 9.11615 15.8838C9.35057 16.1183 9.66849 16.25 10 16.25H15C15.3315 16.25 15.6494 16.1183 15.8838 15.8838C16.1183 15.6494 16.25 15.3315 16.25 15V10C16.25 9.66849 16.1183 9.35057 15.8838 9.11615C15.6494 8.88174 15.3315 8.75003 15 8.75H10ZM11.25 11.25H13.75V13.75H11.25V11.25Z" fill="#959595"/>
</svg>
