<svg width="38" height="39" viewBox="0 0 38 39" fill="none" xmlns="http://www.w3.org/2000/svg">
<path d="M19 19.3428C21.6234 19.3428 23.75 17.2161 23.75 14.5928C23.75 11.9694 21.6234 9.84277 19 9.84277C16.3766 9.84277 14.25 11.9694 14.25 14.5928C14.25 17.2161 16.3766 19.3428 19 19.3428Z" stroke="#959595" stroke-width="3.5"/>
<path d="M19.0001 35.1761C27.7446 35.1761 34.8334 28.0872 34.8334 19.3427C34.8334 10.5982 27.7446 3.5094 19.0001 3.5094C10.2556 3.5094 3.16675 10.5982 3.16675 19.3427C3.16675 28.0872 10.2556 35.1761 19.0001 35.1761Z" stroke="#959595" stroke-width="3.5"/>
<path d="M28.451 32.0094C28.199 27.4312 26.7973 24.0928 18.9997 24.0928C11.2023 24.0928 9.80057 27.4312 9.54858 32.0094" stroke="#959595" stroke-width="3.5" stroke-linecap="round"/>
</svg>
